<svg width="245" height="68" viewBox="0 0 245 68" fill="none" xmlns="http://www.w3.org/2000/svg"><path d="M144.16 26.001C146.416 26.001 148.24 26.9698 149.445 28.4385V26.2822H153V41.5625C153 47.031 149.26 49.9999 144.871 50C141.348 50 137.762 48.0936 136.772 43.7812H140.327C141.069 45.9998 143.14 46.75 144.84 46.75C147.343 46.75 149.414 45.2187 149.445 41.6562V40.2812C148.302 41.6874 146.447 42.625 144.16 42.625C139.431 42.625 136 38.9693 136 34.3135C136 29.5324 139.555 25.9385 144.16 26.001ZM236.16 26C238.416 26 240.24 26.983 241.445 28.3955V26.2764H245V49H241.445V40.3408C240.24 41.8146 238.385 42.7968 236.16 42.7969C231.678 42.7969 228 39.1118 228 34.3828C228 29.8382 231.679 26 236.16 26ZM214.758 27.0957H219.874V30.1904H214.758L214.727 38.2881C214.727 40.1951 216.432 41.2895 220 40.0703V43.54C214.916 44.9469 211.126 43.1027 211.126 38.3193L211.158 30.1904H208V27.0957H211.158L211.189 23H214.758V27.0957ZM98.7812 21C105 21 109.969 25.7635 110 32C110 38.2052 105.094 43 98.7812 43H91V21H98.7812ZM116.362 43H112.503V26.6152H116.362V43ZM126.639 26C130.565 26.0002 134 28.0826 134 31.3457V42.751H130.656V40.2646C130.012 41.1659 128.172 42.9999 125.074 43C122.467 43 119.031 41.8501 119 37.9346C118.969 34.547 121.393 32.7754 125.718 32.7754H130.656V31.7803C130.656 29.8536 128.877 29.0146 126.699 29.0146C125.012 29.0147 123.233 29.5119 122.804 31.252L119.43 31.3145C119.522 27.958 122.774 26 126.639 26ZM164.924 26C168.621 26 172 28.4921 172 32.75V43H168.335V33.7275C168.335 30.9205 166.422 29.375 164.223 29.375C161.514 29.3753 159.665 31.5512 159.665 34.3896V43H156V26.2842H159.665V28.4912C160.717 27.1351 162.502 26.0001 164.924 26ZM181.5 26C186.219 26 190 29.8537 190 34.4844C190 39.1461 186.187 43 181.5 43C176.781 43 173 39.1151 173 34.4844C173 29.8226 176.781 26 181.5 26ZM199.584 26C201.637 26 206.437 26.509 206.92 31.1982L203.298 31.2314C203.121 29.7474 201.741 28.8643 199.584 28.8643C197.69 28.8643 196.466 29.5887 196.466 30.709C196.466 31.4055 196.894 32.3082 198.929 32.6543L202.062 33.1348C205.43 33.7212 207 35.1857 207 37.7422C207 40.9362 204.131 43 199.69 43C197.621 42.9999 195.844 42.546 194.551 41.6865C193.057 40.6932 192.199 39.1789 192 37.1855L195.593 37.2178C195.964 39.0396 197.378 39.9639 199.798 39.9639C201.908 39.9638 203.271 39.226 203.271 38.085C203.271 37.1666 202.524 36.5247 201.167 36.2773L197.499 35.6934C195.263 35.3038 192.596 34.1939 192.596 31.1201C192.596 28.0098 195.339 26.0001 199.584 26ZM225.362 43H221.503V26.6152H225.362V43ZM126.331 35.3545C123.509 35.3546 122.374 36.5978 122.527 38.0273C122.681 39.5501 124.123 40.0478 125.35 40.0479C127.957 40.0479 130.656 37.9651 130.656 35.3545H126.331ZM181.5 29.2637C178.594 29.2637 176.344 31.6252 176.344 34.4844C176.344 37.3436 178.625 39.7061 181.5 39.7061C184.406 39.706 186.656 37.3125 186.656 34.4844C186.656 31.6252 184.375 29.2637 181.5 29.2637ZM236.469 29.2246C233.533 29.2248 231.338 31.5887 231.338 34.3828C231.338 37.2385 233.563 39.6033 236.469 39.6035C239.343 39.6035 241.662 37.208 241.662 34.3828C241.662 31.5886 239.312 29.2246 236.469 29.2246ZM94.7188 39.4902H98.7812C103.281 39.4902 106.344 36.2307 106.344 32C106.344 27.6439 103.25 24.4785 98.7812 24.4785H94.7188V39.4902ZM144.469 29.1885C141.625 29.1886 139.338 31.4387 139.338 34.3135C139.338 37.2193 141.687 39.4061 144.469 39.4062C147.312 39.4062 149.662 37.1569 149.662 34.3135C149.662 31.4698 147.343 29.1885 144.469 29.1885ZM114.483 20C115.893 20.0001 117 21.0207 117 22.2881C117 23.5553 115.893 24.575 114.483 24.5752C113.108 24.5752 112 23.5553 112 22.2881C112 21.0206 113.108 20 114.483 20ZM223.483 20C224.893 20.0001 226 21.0207 226 22.2881C226 23.5553 224.893 24.5751 223.483 24.5752C222.108 24.5752 221 23.5553 221 22.2881C221 21.0206 222.108 20 223.483 20Z" fill="#3C2A5A"/><path fill-rule="evenodd" clip-rule="evenodd" d="M58.8658 9.94888C69.1136 20.0578 71.5279 34.9894 66.1579 47.3978H48.0495C55.5337 40.0151 55.5318 28.0021 48.0482 20.62C40.5647 13.2379 28.3878 13.2379 20.9035 20.6205C13.42 28.0027 13.42 40.0145 20.9035 47.3966C28.3872 54.7788 40.566 54.78 48.0495 47.3978V65.2613C35.4704 70.5585 20.3337 68.1769 10.0857 58.0678C-3.36274 44.8015 -3.36149 23.2168 10.087 9.95052C23.5356 -3.31571 45.4174 -3.31743 58.8658 9.94888ZM48.0484 65.2656C51.9769 63.6111 55.6635 61.2295 58.8645 58.0723C62.065 54.9148 64.4797 51.2779 66.157 47.4021H78V65.2649H48.0484V65.2656Z" fill="url(#paint0_linear_789_2613)"/><defs><linearGradient id="paint0_linear_789_2613" x1="9.95707" y1="8.43096" x2="68.4235" y2="10.2813" gradientUnits="userSpaceOnUse"><stop stop-color="#AD66CB"/><stop offset="0.485577" stop-color="#8666FC"/><stop offset="1" stop-color="#64AAF1"/></linearGradient></defs></svg>